# xmcd CD database file
#
# Track frame offsets:
#	150
#	14883
#	35000
#	52425
#
# Disc length: 1044 seconds
#
# Revision: 0
# Processed by: cddbd v1.4PL0 Copyright (c) Steve Scherf et al.
# Submitted via: CDex 1.50
#
DISCID=3c041204
DTITLE=Roy Obiedo - Hot Tracks
DYEAR=1989
DGENRE=Jazz
TTITLE0=Short Stories (single edit)
TTITLE1=Criss Cross
TTITLE2=No Fiesta
TTITLE3=Anaza's Dance
EXTD=YEAR: 1989
EXTT0=
EXTT1=
EXTT2=
EXTT3=
PLAYORDER=
